<svg width="366" height="134" viewBox="0 0 366 134" fill="none" xmlns="http://www.w3.org/2000/svg">
<path d="M0 30C0 13.4315 13.4315 0 30 0H336C352.569 0 366 13.4315 366 30V104C366 120.569 352.569 134 336 134H30C13.4315 134 0 120.569 0 104V30Z" fill="#8D1215"/>
<rect x="150.321" y="20.9996" width="186.268" height="7" rx="3.5" fill="#FAF6E5"/>
<rect x="150.321" y="73.9993" width="186.268" height="7" rx="3.5" fill="#FAF6E5"/>
<rect x="150.321" y="102" width="186.268" height="7" rx="3.5" fill="#FAF6E5"/>
<rect x="211.321" y="34.0005" width="125.268" height="7" rx="3.5" fill="#FAF6E5"/>
<rect x="179.732" y="87.9996" width="119.821" height="7" rx="3.5" fill="#FAF6E5"/>
<rect x="163.393" y="61.0001" width="152.5" height="7" rx="3.5" fill="#FAF6E5"/>
<path d="M29.4537 57.1798C34.6029 48.3446 39.76 39.7147 44.711 30.9635C46.7951 27.2797 48.4096 23.3213 50.3233 19.5328C50.6621 18.8621 51.4232 18.4135 51.9892 17.8623C52.4531 18.4306 53.0131 18.943 53.3663 19.5756C58.7252 29.1739 63.9868 38.8295 69.4185 48.3845C73.3464 55.2941 77.2606 62.1856 79.563 69.888C84.8186 87.4699 75.0311 104.634 57.4522 108.631C40.5603 112.472 23.3391 98.6084 22.8873 80.9721C22.6666 72.3548 25.4324 64.7041 29.4537 57.1798Z" fill="#DF9A9A"/>
<path d="M42.9071 59.5919C49.0693 49.3468 55.2408 39.3398 61.1658 29.1921C63.6599 24.9204 65.5921 20.3304 67.8822 15.9374C68.2876 15.1596 69.1984 14.6394 69.8759 14.0003C70.4309 14.6593 71.1012 15.2534 71.5239 15.987C77.9369 27.117 84.2336 38.3134 90.7338 49.393C95.4344 57.4053 100.119 65.3964 102.874 74.328C109.163 94.7155 97.4505 114.618 76.4136 119.253C56.1986 123.708 35.5897 107.631 35.049 87.1809C34.7848 77.1884 38.0948 68.3169 42.9071 59.5919Z" fill="#FFBABA"/>
<path d="M59.6864 109.861C58.5861 109.712 57.6517 109.271 58.5129 108.164C62.9194 102.503 61.1434 95.7013 61.3776 89.3027C61.5251 85.274 61.3092 81.2257 61.1884 77.1887C61.0715 73.2808 62.8777 70.1007 64.2402 66.7536C65.6089 63.3913 65.3386 60.163 63.806 56.9951C63.144 58.5764 62.4895 60.1397 61.649 62.1474C60.4147 59.5184 59.2565 57.444 58.4903 55.2025C58.2283 54.4358 58.6727 52.8967 59.268 52.3148C62.3306 49.3209 66.0056 47.6397 70.0125 46.9805C71.0317 46.8128 72.254 46.8901 73.1594 47.3752C77.3311 49.6105 80.587 53.0986 83.2208 57.3005C84.1062 58.7131 83.0082 60.9828 80.9367 62.4507C80.0532 63.0768 79.2285 63.8062 78.0653 64.7385C77.6804 62.725 77.2891 60.6782 76.8641 58.4551C75.3579 61.876 75.516 64.7131 76.8273 68.342C79.198 74.9025 83.7336 80.5538 83.8645 88.0985C83.8705 88.4436 84.0095 88.8755 84.2236 89.1129C87.6393 92.9022 87.6517 97.0714 85.5132 101.604C84.747 103.228 84.2618 105.017 83.5244 107.077C85.4272 107.363 86.8769 107.581 88.4338 107.815C88.3081 108.101 88.2422 108.52 88.0845 108.569C83.256 110.059 78.2409 111.23 73.375 110.096C70.8104 109.499 68.364 109.535 65.8703 109.423C63.8766 109.333 61.8662 109.706 59.6864 109.861ZM65.5707 103.47C65.6111 104.105 65.6515 104.741 65.7245 105.889C66.8011 105.207 67.5639 104.724 68.3267 104.24C67.5973 103.237 66.8678 102.233 65.8068 100.773C65.6936 101.973 65.64 102.541 65.5707 103.47Z" fill="#7B1213"/>
</svg>
