<svg width="366" height="134" viewBox="0 0 366 134" fill="none" xmlns="http://www.w3.org/2000/svg">
<path d="M0 30C0 13.4315 13.4315 0 30 0H336C352.569 0 366 13.4315 366 30V104C366 120.569 352.569 134 336 134H30C13.4315 134 0 120.569 0 104V30Z" fill="#8D1215"/>
<path d="M33.8108 58.2966C38.96 49.4613 44.1171 40.8315 49.0681 32.0802C51.1522 28.3964 52.7668 24.4381 54.6804 20.6496C55.0192 19.9788 55.7803 19.5302 56.3464 18.9791C56.8102 19.5474 57.3702 20.0597 57.7234 20.6924C63.0823 30.2907 68.3439 39.9463 73.7756 49.5012C77.7035 56.4109 81.6177 63.3023 83.9201 71.0048C89.1757 88.5867 79.3882 105.751 61.8094 109.748C44.9174 113.589 27.6963 99.7251 27.2444 82.0889C27.0237 73.4715 29.7895 65.8209 33.8108 58.2966Z" fill="#DF9A9A"/>
<path d="M47.2642 60.7082C53.4264 50.4631 59.598 40.4561 65.523 30.3084C68.0171 26.0368 69.9492 21.4468 72.2393 17.0537C72.6448 16.2759 73.5556 15.7558 74.233 15.1166C74.7881 15.7756 75.4583 16.3698 75.881 17.1034C82.294 28.2333 88.5907 39.4297 95.0909 50.5094C99.7915 58.5216 104.476 66.5128 107.231 75.4444C113.521 95.8319 101.808 115.735 80.7707 120.37C60.5557 124.824 39.9468 108.748 39.4061 88.2972C39.1419 78.3047 42.4519 69.4332 47.2642 60.7082Z" fill="#FFBABA"/>
<path d="M54.2998 110.58C49.0144 108.921 46.8234 103.257 47.5343 96.9212C47.9025 93.6404 49.2823 90.4158 50.6203 87.3686C51.0211 86.4559 52.8238 86.2278 53.9842 85.686C53.856 86.923 54.0663 88.3566 53.5408 89.3628C51.2834 93.6861 50.8042 98.083 52.6888 102.607C53.1895 103.809 54.1177 104.984 55.1432 105.712C55.855 106.217 57.2184 106.269 58.0036 105.88C58.4814 105.643 58.6884 104.133 58.5495 103.279C56.5373 90.9111 61.445 79.9703 71.58 73.7877C73.9517 72.3408 75.9978 70.2278 77.9839 68.1934C78.5967 67.5658 78.8565 66.1152 78.6851 65.1596C78.2114 62.5177 78.3291 60.1972 79.6425 57.7218C80.3707 56.3494 79.9378 54.3136 80.1235 52.5882C80.1961 51.9127 80.5292 51.2684 80.9043 50.1168C82.649 51.7709 84.0957 53.1426 85.6223 54.59C86.4217 53.3744 87.1929 52.2015 87.9642 51.0286C88.2017 50.9626 88.4392 50.8965 88.6767 50.8305C87.4462 55.9712 92.7755 55.4758 94.0463 58.7326C94.7972 60.6567 95.4932 62.4849 93.5381 63.5911C90.0848 65.5449 90.1034 68.5074 91.0215 71.6469C92.3458 76.1751 91.681 80.2035 89.0435 83.9317C84.6473 90.1459 84.4004 97.4896 84.0517 104.76C84.0068 105.697 85.2166 106.684 85.8008 107.676C86.2235 108.395 86.8156 109.151 86.8456 109.911C86.8593 110.258 85.7314 110.873 85.0621 110.99C82.8875 111.371 81.291 110.541 80.6602 108.157C80.3556 107.006 80.065 105.85 79.7038 104.447C78.8773 105.92 76.7812 106.699 78.3137 109.019C78.4024 109.153 77.0649 110.924 76.3373 110.97C72.7583 111.192 69.161 111.095 65.5702 111.098C63.265 111.1 60.9584 111.126 58.6551 111.05C57.2699 111.004 55.89 110.782 54.2998 110.58Z" fill="#7B1213"/>
<rect x="150.321" y="22.1167" width="186.268" height="7" rx="3.5" fill="#FAF6E5"/>
<rect x="150.321" y="75.1167" width="186.268" height="7" rx="3.5" fill="#FAF6E5"/>
<rect x="150.321" y="103.117" width="186.268" height="7" rx="3.5" fill="#FAF6E5"/>
<rect x="211.321" y="35.1166" width="125.268" height="7" rx="3.5" fill="#FAF6E5"/>
<rect x="179.732" y="89.1167" width="119.821" height="7" rx="3.5" fill="#FAF6E5"/>
<rect x="163.393" y="62.1166" width="152.5" height="7" rx="3.5" fill="#FAF6E5"/>
</svg>
