<svg width="15" height="15" viewBox="0 0 15 15" fill="none" xmlns="http://www.w3.org/2000/svg">
<path d="M10.1475 5.4174C11.4075 5.41809 12.5846 5.41425 13.7616 5.41953C14.8241 5.4243 14.9902 5.59794 14.9979 6.68833C15.0014 7.17625 14.9997 7.66422 14.9985 8.15217C14.9955 9.42374 14.8768 9.54674 13.6369 9.54863C12.3237 9.55064 11.0104 9.54908 9.57823 9.54908C9.57823 10.9831 9.58057 12.3214 9.57753 13.6597C9.57488 14.8239 9.40589 14.9885 8.22193 14.9937C7.67648 14.9961 7.1303 14.9764 6.58569 14.998C5.79421 15.0293 5.41931 14.6975 5.44017 13.8777C5.46938 12.7304 5.40322 11.5794 5.46285 10.4344C5.50161 9.69028 5.22224 9.50503 4.52779 9.53551C3.38165 9.58582 2.23131 9.53094 1.08345 9.55482C0.30926 9.57092 -0.0189028 9.21665 0.000837863 8.46223C0.0181003 7.80251 0.016592 7.14173 0.00187199 6.4819C-0.0153352 5.71057 0.36113 5.40169 1.11336 5.41264C2.51417 5.43303 3.91549 5.41849 5.44731 5.41849C5.44731 4.00194 5.44527 2.66421 5.44791 1.32649C5.45027 0.133678 5.58084 0.00694862 6.79479 0.00302519C7.34026 0.00126226 7.88582 -0.00348803 8.43118 0.00444418C9.38453 0.0183105 9.57055 0.207539 9.5765 1.18808C9.58365 2.36486 9.57808 3.5417 9.57875 4.71852C9.57894 5.06289 9.51932 5.45059 10.1475 5.4174Z" fill="#FCB7B7"/>
</svg>
