<svg width="36" height="35" viewBox="0 0 36 35" fill="none" xmlns="http://www.w3.org/2000/svg">
<path d="M35.7321 28.9577C35.7604 29.6329 35.4789 30.0983 34.8855 30.3354C34.2974 30.5704 33.7679 30.4232 33.3196 29.9821C31.1378 27.8356 28.9562 25.689 26.7737 23.5432C26.0397 22.8215 25.2957 22.1095 24.574 21.3759C24.3937 21.1928 24.2609 21.1786 24.0376 21.2858C22.4309 22.0572 20.7282 22.4216 18.947 22.3602C13.8037 22.1827 9.39731 18.5042 8.4963 13.4045C7.50545 7.79622 11.1502 2.47489 16.6303 1.12507C22.8002 -0.394657 28.9813 3.50625 30.0846 9.71831C30.7481 13.4539 29.5879 16.6746 26.8728 19.342C26.804 19.4096 26.7184 19.4603 26.5044 19.6214C26.7016 19.7406 26.853 19.7976 26.9583 19.9008C29.7089 22.6 32.4597 25.299 35.1926 28.0157C35.4343 28.256 35.5538 28.6173 35.7321 28.9577ZM26.7031 8.08769C25.0822 4.76381 21.4579 2.96976 17.7397 3.65068C13.1225 4.49623 10.1679 9.07509 11.3368 13.5736C12.4192 17.7391 16.6289 20.3496 20.9142 19.5128C24.7428 18.7652 27.5254 15.4086 27.5189 11.5396C27.5169 10.3493 27.2366 9.21897 26.7031 8.08769Z" fill="#FFFEED"/>
<path d="M8.40954 31.7839C11.061 31.7839 13.6707 31.7727 16.28 31.7965C16.6506 31.7998 17.0618 31.9008 17.3797 32.0839C17.8654 32.3637 18.028 32.9769 17.8745 33.5108C17.7203 34.0469 17.2325 34.4333 16.6465 34.4821C16.5911 34.4867 16.5349 34.484 16.4791 34.484C11.5112 34.4841 6.54324 34.4837 1.57529 34.4846C0.961499 34.4847 0.498792 34.2345 0.236755 33.676C0.00447015 33.1808 0.112837 32.6071 0.490952 32.2155C0.824451 31.8702 1.24793 31.7812 1.71116 31.7821C3.92998 31.7861 6.14881 31.7839 8.40954 31.7839Z" fill="#FFFEED"/>
<path d="M10.5885 29.1007C7.56011 29.1007 4.57357 29.1033 1.58705 29.0992C0.556588 29.0977 -0.0994258 28.2589 0.190402 27.3314C0.344485 26.8382 0.793213 26.4791 1.32284 26.4309C1.4754 26.417 1.62916 26.4102 1.78237 26.4102C6.59711 26.4091 11.4118 26.4078 16.2266 26.4129C16.5012 26.4132 16.7919 26.4204 17.0471 26.5063C17.6625 26.7134 18.0196 27.3481 17.9084 27.9481C17.7814 28.633 17.2466 29.0951 16.5337 29.0978C14.566 29.1055 12.5982 29.1006 10.5885 29.1007Z" fill="#FFFEED"/>
<path d="M0.255924 21.7819C0.553276 21.243 0.991045 21.0144 1.57463 21.0154C4.2546 21.0198 6.93459 21.0141 9.61456 21.0189C10.474 21.0205 11.1076 21.6148 11.0911 22.3793C11.0747 23.138 10.458 23.6942 9.61669 23.6951C6.95067 23.6978 4.28465 23.698 1.61863 23.6952C0.483267 23.694 -0.100274 22.8906 0.255924 21.7819Z" fill="#FFFEED"/>
</svg>
