<svg width="366" height="134" viewBox="0 0 366 134" fill="none" xmlns="http://www.w3.org/2000/svg">
<rect width="366" height="134" rx="30" fill="#8D1215"/>
<rect x="150.321" y="21" width="186.268" height="7" rx="3.5" fill="#FAF7E6"/>
<rect x="150.321" y="74" width="186.268" height="7" rx="3.5" fill="#FAF7E6"/>
<rect x="150.321" y="102" width="186.268" height="7" rx="3.5" fill="#FAF7E6"/>
<rect x="211.321" y="34" width="125.268" height="7" rx="3.5" fill="#FAF7E6"/>
<rect x="179.732" y="88" width="119.821" height="7" rx="3.5" fill="#FAF7E6"/>
<rect x="163.393" y="61" width="152.5" height="7" rx="3.5" fill="#FAF7E6"/>
<path d="M24.5336 58.1799C30.0947 49.3447 35.6644 40.7148 41.0115 31.9636C43.2623 28.2798 45.006 24.3214 47.0727 20.5329C47.4386 19.8622 48.2606 19.4136 48.872 18.8624C49.3729 19.4307 49.9777 19.9431 50.3592 20.5758C56.1468 30.1741 61.8293 39.8297 67.6955 49.3846C71.9377 56.2942 76.165 63.1857 78.6516 70.8882C84.3277 88.4701 73.7572 105.634 54.772 109.631C36.5287 113.472 17.9299 99.6085 17.4419 81.9723C17.2035 73.3549 20.1906 65.7042 24.5336 58.1799Z" fill="#DF9A9A"/>
<path d="M43.4203 59.5916C50.0755 49.3464 56.7408 39.3395 63.1398 29.1918C65.8334 24.9201 67.9201 20.3301 70.3934 15.9371C70.8313 15.1593 71.815 14.6391 72.5466 14C73.1461 14.659 73.8699 15.2531 74.3265 15.9867C81.2525 27.1167 88.0529 38.3131 95.0732 49.3927C100.15 57.405 105.209 65.3961 108.185 74.3277C114.977 94.7152 102.327 114.618 79.6073 119.253C57.7751 123.707 35.5175 107.631 34.9336 87.1806C34.6483 77.1881 38.223 68.3165 43.4203 59.5916Z" fill="#FFBABA"/>
<path d="M63.02 81.7944C67.0921 81.9713 71.0406 81.6583 74.7471 82.4416C80.1874 83.5913 83.5092 88.1711 83.7052 93.6304C83.8012 96.3045 83.5852 98.9964 83.8067 101.657C83.9709 103.628 83.1365 104.451 81.3766 105.023C74.0128 107.415 66.5126 107.377 58.9696 106.276C56.5181 105.918 54.0919 105.285 51.7246 104.558C51.0716 104.357 50.2651 103.388 50.2272 102.733C50.0637 99.9073 50.0887 97.0653 50.1749 94.2332C50.3985 86.8886 55.2437 82.1437 63.02 81.7944Z" fill="#7B1012"/>
<path d="M100.131 93.7421C95.8384 96.2872 91.1917 96.7626 86.2088 97.0182C86.7243 88.8695 83.5064 83.1119 75.9958 80.2548C77.2343 77.5461 78.4565 74.873 79.7612 72.0194C82.8219 72.0194 86.3004 71.6991 89.693 72.0911C95.4099 72.7517 99.8903 77.7563 100.139 83.3915C100.288 86.7709 100.177 90.1613 100.131 93.7421Z" fill="#7C1113"/>
<path d="M73.6675 78.6059C70.0371 81.4523 66.165 81.8686 62.2842 79.886C58.8438 78.1283 57.0448 75.1173 57.1117 71.2161C57.1819 67.1258 59.8331 63.6942 63.8672 62.404C67.9426 61.1007 72.2799 62.3719 74.8906 65.6348C77.4124 68.7867 77.598 73.2528 75.3118 76.6649C74.875 77.3168 74.3083 77.8854 73.6675 78.6059Z" fill="#7C1214"/>
<path d="M88.6725 69.6717C87.0124 70.2446 85.5319 70.8956 83.9831 71.1534C81.0918 71.6347 79.7895 70.5203 78.5774 67.8661C77.7164 65.9807 76.4624 64.1298 74.9476 62.7084C73.5936 61.438 73.4268 60.3391 73.9476 58.7878C75.3095 54.7313 79.0273 52.0228 83.3578 52.0001C87.6508 51.9777 91.3443 54.5091 92.7405 58.4308C94.2248 62.6003 92.8039 66.6397 88.6725 69.6717Z" fill="#7C1214"/>
</svg>
