<svg width="366" height="134" viewBox="0 0 366 134" fill="none" xmlns="http://www.w3.org/2000/svg">
<rect width="366" height="134" rx="30" fill="#8D1215"/>
<rect x="150.321" y="21" width="186.268" height="7" rx="3.5" fill="#FAF6E5"/>
<rect x="150.321" y="74" width="186.268" height="7" rx="3.5" fill="#FAF6E5"/>
<rect x="150.321" y="102" width="186.268" height="7" rx="3.5" fill="#FAF6E5"/>
<rect x="211.321" y="34" width="125.268" height="7" rx="3.5" fill="#FAF6E5"/>
<rect x="179.732" y="88" width="119.821" height="7" rx="3.5" fill="#FAF6E5"/>
<rect x="163.393" y="61" width="152.5" height="7" rx="3.5" fill="#FAF6E5"/>
<path d="M24.5336 58.1799C30.0947 49.3447 35.6644 40.7148 41.0115 31.9636C43.2623 28.2798 45.006 24.3214 47.0727 20.5329C47.4386 19.8622 48.2606 19.4136 48.872 18.8624C49.3729 19.4307 49.9777 19.9431 50.3592 20.5758C56.1468 30.1741 61.8293 39.8297 67.6955 49.3846C71.9377 56.2942 76.165 63.1857 78.6516 70.8882C84.3277 88.4701 73.7572 105.634 54.772 109.631C36.5287 113.472 17.9299 99.6085 17.4419 81.9723C17.2035 73.3549 20.1906 65.7042 24.5336 58.1799Z" fill="#DF9A9A"/>
<path d="M43.4203 59.5916C50.0755 49.3464 56.7408 39.3395 63.1398 29.1918C65.8334 24.9201 67.9201 20.3301 70.3934 15.9371C70.8313 15.1593 71.815 14.6391 72.5466 14C73.1461 14.659 73.8699 15.2531 74.3265 15.9867C81.2525 27.1167 88.0529 38.3131 95.0732 49.3927C100.15 57.405 105.209 65.3961 108.185 74.3277C114.977 94.7152 102.327 114.618 79.6073 119.253C57.7751 123.707 35.5175 107.631 34.9336 87.1806C34.6483 77.1881 38.223 68.3165 43.4203 59.5916Z" fill="#FFBABA"/>
<path d="M52.2494 104.781C50.8653 104.644 49.6898 104.24 50.7732 103.226C56.3166 98.0362 54.0824 91.8009 54.377 85.9352C54.5625 82.2421 54.2909 78.5309 54.139 74.8301C53.9919 71.2478 56.2642 68.3325 57.9782 65.2642C59.7 62.1819 59.36 59.2225 57.4319 56.3185C56.5991 57.7681 55.7757 59.2012 54.7183 61.0416C53.1657 58.6316 51.7086 56.73 50.7448 54.6752C50.4151 53.9723 50.9742 52.5614 51.7231 52.028C55.5758 49.2834 60.199 47.7423 65.2397 47.138C66.5219 46.9843 68.0594 47.0551 69.1984 47.4998C74.4465 49.5489 78.5424 52.7465 81.8557 56.5985C82.9695 57.8934 81.5883 59.974 78.9823 61.3197C77.8709 61.8936 76.8334 62.5622 75.3701 63.4169C74.8859 61.5711 74.3936 59.6948 73.859 57.6569C71.9642 60.7928 72.1631 63.3937 73.8128 66.7203C76.795 72.7344 82.5008 77.915 82.6655 84.8313C82.6731 85.1476 82.8479 85.5436 83.1172 85.7612C87.4141 89.2349 87.4298 93.0568 84.7396 97.2119C83.7757 98.7006 83.1653 100.341 82.2376 102.229C84.6313 102.491 86.4551 102.691 88.4137 102.905C88.2555 103.167 88.1727 103.552 87.9743 103.597C81.9 104.963 75.591 106.036 69.4696 104.997C66.2434 104.449 63.1659 104.482 60.0288 104.38C57.5207 104.298 54.9917 104.639 52.2494 104.781ZM59.6519 98.9223C59.7027 99.5048 59.7535 100.087 59.8453 101.14C61.1997 100.515 62.1593 100.072 63.119 99.6288C62.2013 98.7086 61.2837 97.7884 59.9489 96.4499C59.8065 97.5498 59.7391 98.0711 59.6519 98.9223Z" fill="#7B1213"/>
<path d="M61.9281 108.849C56.9958 107.447 54.9511 102.662 55.6146 97.3084C55.9582 94.5363 57.2458 91.8117 58.4944 89.237C58.8684 88.4658 60.5507 88.2731 61.6336 87.8153C61.5139 88.8605 61.7102 90.0718 61.2198 90.922C59.1132 94.5749 58.666 98.2901 60.4247 102.112C60.892 103.128 61.7582 104.121 62.7152 104.736C63.3794 105.163 64.6517 105.207 65.3845 104.878C65.8303 104.678 66.0235 103.402 65.8939 102.68C64.0161 92.2302 68.5959 82.9859 78.0538 77.762C80.2671 76.5395 82.1765 74.7541 84.0299 73.0352C84.6018 72.5048 84.8442 71.2791 84.6843 70.4717C84.2422 68.2395 84.3521 66.2789 85.5777 64.1873C86.2572 63.0277 85.8533 61.3076 86.0265 59.8497C86.0943 59.2789 86.4051 58.7345 86.7552 57.7615C88.3833 59.1592 89.7334 60.3181 91.158 61.5411C91.904 60.514 92.6237 59.5229 93.3434 58.5319C93.565 58.4761 93.7867 58.4203 94.0083 58.3646C92.86 62.7081 97.8333 62.2895 99.0192 65.0413C99.7199 66.6671 100.369 68.2118 98.545 69.1465C95.3223 70.7973 95.3397 73.3004 96.1965 75.9531C97.4323 79.7792 96.8119 83.183 94.3506 86.3331C90.2481 91.5836 90.0177 97.7886 89.6923 103.931C89.6504 104.723 90.7794 105.557 91.3245 106.396C91.719 107.003 92.2716 107.642 92.2996 108.284C92.3123 108.577 91.2598 109.097 90.6352 109.196C88.6059 109.518 87.1161 108.816 86.5274 106.802C86.2431 105.829 85.972 104.853 85.6349 103.667C84.8636 104.912 82.9075 105.57 84.3377 107.53C84.4204 107.644 83.1723 109.14 82.4933 109.178C79.1534 109.366 75.7965 109.285 72.4455 109.287C70.2943 109.289 68.1418 109.311 65.9924 109.246C64.6998 109.207 63.4121 109.02 61.9281 108.849Z" fill="#5B0202"/>
</svg>
