<svg width="41" height="39" viewBox="0 0 41 39" fill="none" xmlns="http://www.w3.org/2000/svg">
<ellipse cx="20.5" cy="19.5" rx="20.5" ry="19.5" fill="#7A0F11"/>
<path d="M12.1488 14.668C14.0045 12.7994 15.7914 10.9892 17.5886 9.18953C19.0465 7.72952 20.6746 7.60954 21.9378 8.85149C23.161 10.054 23.0381 11.7653 21.6223 13.2389C20.7719 14.124 19.9206 15.0082 19.0731 15.8961C19.058 15.9119 19.0854 15.9687 19.12 16.1403C21.9431 16.1403 24.7952 16.1402 27.6473 16.1404C28.4503 16.1405 29.2538 16.1236 30.0562 16.1462C31.8089 16.1956 32.9929 17.3475 33 18.9852C33.0072 20.6538 31.868 21.8097 30.083 21.8261C26.6176 21.8578 23.1518 21.8367 19.6861 21.8375C19.4856 21.8375 19.2851 21.8375 18.7532 21.8375C19.8627 22.9674 20.7666 23.8741 21.655 24.7959C23.0113 26.2031 23.1433 27.9198 21.9996 29.0974C20.7601 30.3736 19.0776 30.2959 17.6498 28.8682C15.1317 26.3502 12.6163 23.8292 10.1195 21.2899C8.62121 19.7661 8.63396 18.2528 10.115 16.7187C10.7629 16.0477 11.4274 15.393 12.1488 14.668Z" fill="#FEFCEB"/>
</svg>
