<svg width="40" height="40" viewBox="0 0 40 40" fill="none" xmlns="http://www.w3.org/2000/svg">
<path d="M19.0598 39.3342C14.8894 39.2114 10.8276 38.7672 6.90274 37.5564C5.32282 37.069 3.80712 36.4629 2.5007 35.4846C1.38257 34.6473 0.876767 33.6199 0.990687 32.2645C1.47408 26.5135 5.83218 21.877 11.9867 20.6232C12.4361 20.5317 12.7763 20.584 13.1737 20.8334C15.1267 22.0588 17.3011 22.6647 19.6775 22.7566C22.7358 22.8749 25.5705 22.329 28.0995 20.6829C28.2668 20.574 28.5596 20.5556 28.7761 20.5898C34.4135 21.4812 39.1603 26.0574 39.8492 31.2549C39.9073 31.6937 39.921 32.1373 39.9757 32.5766C40.1204 33.7404 39.613 34.6915 38.6297 35.3378C37.5799 36.0277 36.4565 36.6729 35.2695 37.131C32.0632 38.3686 28.6604 38.9148 25.2074 39.1505C23.1819 39.2887 21.1443 39.2794 19.0598 39.3342Z" fill="#FFFEED"/>
<path d="M29.6163 14.5156C28.7095 16.1301 27.556 17.514 25.9991 18.5988C22.5723 20.9863 18.5095 21.0531 15.0919 18.652C11.8427 16.3693 10.1309 13.2897 10.0683 9.54377C9.99773 5.32214 13.1191 1.57644 17.5452 0.390756C21.9868 -0.799111 26.7274 0.7866 29.237 4.35492C31.3911 7.41773 31.3828 10.6357 29.9127 13.9253C29.8285 14.1138 29.7289 14.2966 29.6163 14.5156Z" fill="#FFFEED"/>
</svg>
