<svg width="58" height="55" viewBox="0 0 58 55" fill="none" xmlns="http://www.w3.org/2000/svg">
<path d="M57.8494 27.5C57.8494 42.6878 45.0895 55 29.3494 55C13.6093 55 0.849365 42.6878 0.849365 27.5C0.849365 12.3122 13.6093 0 29.3494 0C45.0895 0 57.8494 12.3122 57.8494 27.5Z" fill="#D9D9D9"/>
<path d="M23.131 15.3925C16.7668 27.5738 16 29.5331 16 34.0478C16 40.8626 19.8339 46.4847 25.8148 48.5292C31.949 50.5736 39.4634 45.7181 41.227 38.6478C42.3771 34.0478 42.3005 32.9404 40.6136 28.0849C39.1567 23.6554 29.7253 5.08518 29.0352 5C28.8052 5 26.1215 9.68514 23.131 15.3925Z" fill="#5A0000"/>
</svg>
