<svg width="202" height="76" viewBox="0 0 202 76" fill="none" xmlns="http://www.w3.org/2000/svg">
<path d="M78.7934 41.5548C78.2939 47.1775 76.583 52.3525 73.641 57.1081C68.3717 65.6256 60.815 71.5006 50.9381 74.3607C33.2622 79.4793 14.4374 72.3242 5.23907 56.9C1.20249 50.1312 -0.468768 42.8549 0.112132 35.1058C1.40531 17.8551 14.9283 3.10064 33.4678 0.472656C46.9849 -1.4434 58.7394 2.47892 68.2559 12.0044C73.9883 17.7422 77.3754 24.6565 78.5751 32.5502C79.0259 35.5163 79.1489 38.4815 78.7934 41.5548ZM66.4209 14.9211C65.4624 13.8784 64.4597 12.8808 63.3503 11.9812C53.1948 3.74649 41.6568 1.26583 28.9492 4.85256C12.7673 9.4199 2.00491 24.6235 3.53511 40.9498C4.16399 47.6595 6.57342 53.658 10.7804 59.0012C12.0629 60.6301 13.3968 62.2424 15.3232 63.5855C15.3232 63.0057 15.3106 62.6091 15.3253 62.2136C15.4054 60.0488 15.1789 57.8816 15.5069 55.7167C16.6507 48.1666 23.384 42.4821 31.3053 42.4508C36.3498 42.4308 41.3944 42.4471 46.4389 42.4473C47.5312 42.4473 48.615 42.4916 49.7063 42.619C56.2948 43.3879 62.0314 48.5052 63.3125 54.7588C63.8091 57.1831 63.613 59.6237 63.658 62.0606C63.6663 62.5108 63.5407 62.9926 63.845 63.4317C77.1461 52.3014 80.659 30.5158 66.4209 14.9211Z" fill="#5A0000"/>
<path d="M50.0151 14.9773C54.1871 19.904 54.0853 28.1368 49.0797 33.1963C44.0628 38.2674 35.2605 38.2949 29.9922 33.1167C23.6173 26.8506 25.0782 16.2529 32.9401 11.7328C38.5205 8.5244 45.6842 9.86533 50.0151 14.9773Z" fill="#5A0000"/>
<path d="M103.461 44.7227L98.4707 59H95.9902L91 44.7227H93.4023L96.4102 53.668C96.5013 53.9284 96.599 54.2441 96.7031 54.6152C96.8138 54.9863 96.9147 55.3607 97.0059 55.7383C97.1035 56.1159 97.1784 56.4512 97.2305 56.7441C97.2826 56.4512 97.3542 56.1159 97.4453 55.7383C97.543 55.3607 97.6439 54.9863 97.748 54.6152C97.8522 54.2441 97.9499 53.9251 98.041 53.6582L101.059 44.7227H103.461ZM107.396 48.1895V59H105.102V48.1895H107.396ZM106.264 44.0488C106.615 44.0488 106.918 44.1432 107.172 44.332C107.432 44.5208 107.562 44.8464 107.562 45.3086C107.562 45.7643 107.432 46.0898 107.172 46.2852C106.918 46.474 106.615 46.5684 106.264 46.5684C105.899 46.5684 105.59 46.474 105.336 46.2852C105.089 46.0898 104.965 45.7643 104.965 45.3086C104.965 44.8464 105.089 44.5208 105.336 44.332C105.59 44.1432 105.899 44.0488 106.264 44.0488ZM117.953 55.9141C117.953 56.6237 117.781 57.2227 117.436 57.7109C117.09 58.1992 116.586 58.5703 115.922 58.8242C115.264 59.0716 114.457 59.1953 113.5 59.1953C112.745 59.1953 112.094 59.14 111.547 59.0293C111.007 58.9251 110.495 58.7624 110.014 58.541V56.5586C110.528 56.7995 111.104 57.0078 111.742 57.1836C112.387 57.3594 112.995 57.4473 113.568 57.4473C114.324 57.4473 114.867 57.3301 115.199 57.0957C115.531 56.8548 115.697 56.5358 115.697 56.1387C115.697 55.9043 115.629 55.696 115.492 55.5137C115.362 55.3249 115.115 55.1328 114.75 54.9375C114.392 54.7357 113.865 54.4948 113.168 54.2148C112.484 53.9414 111.908 53.668 111.439 53.3945C110.971 53.1211 110.616 52.7923 110.375 52.4082C110.134 52.0176 110.014 51.5195 110.014 50.9141C110.014 49.957 110.391 49.2311 111.146 48.7363C111.908 48.235 112.914 47.9844 114.164 47.9844C114.828 47.9844 115.453 48.0527 116.039 48.1895C116.632 48.3197 117.211 48.5117 117.777 48.7656L117.055 50.4941C116.566 50.2793 116.075 50.1035 115.58 49.9668C115.092 49.8236 114.594 49.752 114.086 49.752C113.493 49.752 113.041 49.8431 112.729 50.0254C112.423 50.2077 112.27 50.4681 112.27 50.8066C112.27 51.0605 112.344 51.2754 112.494 51.4512C112.644 51.627 112.901 51.8027 113.266 51.9785C113.637 52.1543 114.151 52.3724 114.809 52.6328C115.453 52.8802 116.01 53.1406 116.479 53.4141C116.954 53.681 117.318 54.0098 117.572 54.4004C117.826 54.791 117.953 55.2956 117.953 55.9141ZM122.729 48.1895V59H120.434V48.1895H122.729ZM121.596 44.0488C121.947 44.0488 122.25 44.1432 122.504 44.332C122.764 44.5208 122.895 44.8464 122.895 45.3086C122.895 45.7643 122.764 46.0898 122.504 46.2852C122.25 46.474 121.947 46.5684 121.596 46.5684C121.231 46.5684 120.922 46.474 120.668 46.2852C120.421 46.0898 120.297 45.7643 120.297 45.3086C120.297 44.8464 120.421 44.5208 120.668 44.332C120.922 44.1432 121.231 44.0488 121.596 44.0488ZM130.043 57.3398C130.342 57.3398 130.639 57.3138 130.932 57.2617C131.225 57.2031 131.492 57.1348 131.732 57.0566V58.7949C131.479 58.9056 131.15 59 130.746 59.0781C130.342 59.1562 129.923 59.1953 129.486 59.1953C128.874 59.1953 128.324 59.0944 127.836 58.8926C127.348 58.6842 126.96 58.3294 126.674 57.8281C126.387 57.3268 126.244 56.6335 126.244 55.748V49.9375H124.77V48.9121L126.352 48.1016L127.104 45.7871H128.549V48.1895H131.645V49.9375H128.549V55.7188C128.549 56.2656 128.686 56.6725 128.959 56.9395C129.232 57.2064 129.594 57.3398 130.043 57.3398ZM138.168 47.9844C139.535 47.9844 140.567 48.2871 141.264 48.8926C141.967 49.498 142.318 50.4421 142.318 51.7246V59H140.688L140.248 57.4668H140.17C139.864 57.8574 139.548 58.1797 139.223 58.4336C138.897 58.6875 138.52 58.8763 138.09 59C137.667 59.1302 137.149 59.1953 136.537 59.1953C135.893 59.1953 135.316 59.0781 134.809 58.8438C134.301 58.6029 133.9 58.2383 133.607 57.75C133.314 57.2617 133.168 56.6432 133.168 55.8945C133.168 54.7812 133.581 53.9447 134.408 53.3848C135.242 52.8249 136.498 52.5156 138.178 52.457L140.053 52.3887V51.8223C140.053 51.0736 139.877 50.5397 139.525 50.2207C139.18 49.9017 138.692 49.7422 138.061 49.7422C137.52 49.7422 136.996 49.8203 136.488 49.9766C135.98 50.1328 135.486 50.3249 135.004 50.5527L134.262 48.9316C134.789 48.6517 135.388 48.4238 136.059 48.248C136.736 48.0723 137.439 47.9844 138.168 47.9844ZM140.043 53.834L138.646 53.8828C137.501 53.9219 136.697 54.1172 136.234 54.4688C135.772 54.8203 135.541 55.3021 135.541 55.9141C135.541 56.4479 135.701 56.8385 136.02 57.0859C136.339 57.3268 136.758 57.4473 137.279 57.4473C138.074 57.4473 138.731 57.2227 139.252 56.7734C139.779 56.3177 140.043 55.6504 140.043 54.7715V53.834ZM151.166 47.9844C152.383 47.9844 153.331 48.3001 154.008 48.9316C154.691 49.5566 155.033 50.5625 155.033 51.9492V59H152.738V52.3789C152.738 51.5391 152.566 50.9108 152.221 50.4941C151.876 50.071 151.342 49.8594 150.619 49.8594C149.571 49.8594 148.842 50.1816 148.432 50.8262C148.028 51.4707 147.826 52.4049 147.826 53.6289V59H145.531V48.1895H147.318L147.641 49.6543H147.768C148.002 49.2767 148.292 48.9674 148.637 48.7266C148.988 48.4792 149.379 48.2936 149.809 48.1699C150.245 48.0462 150.697 47.9844 151.166 47.9844ZM162.27 57.3398C162.569 57.3398 162.865 57.3138 163.158 57.2617C163.451 57.2031 163.718 57.1348 163.959 57.0566V58.7949C163.705 58.9056 163.376 59 162.973 59.0781C162.569 59.1562 162.149 59.1953 161.713 59.1953C161.101 59.1953 160.551 59.0944 160.062 58.8926C159.574 58.6842 159.187 58.3294 158.9 57.8281C158.614 57.3268 158.471 56.6335 158.471 55.748V49.9375H156.996V48.9121L158.578 48.1016L159.33 45.7871H160.775V48.1895H163.871V49.9375H160.775V55.7188C160.775 56.2656 160.912 56.6725 161.186 56.9395C161.459 57.2064 161.82 57.3398 162.27 57.3398ZM170.463 47.9844C171.426 47.9844 172.253 48.1829 172.943 48.5801C173.633 48.9772 174.164 49.5404 174.535 50.2695C174.906 50.9987 175.092 51.8711 175.092 52.8867V54.1172H167.875C167.901 55.1654 168.181 55.9727 168.715 56.5391C169.255 57.1055 170.01 57.3887 170.98 57.3887C171.671 57.3887 172.289 57.3236 172.836 57.1934C173.389 57.0566 173.959 56.8581 174.545 56.5977V58.4629C174.005 58.7168 173.454 58.9023 172.895 59.0195C172.335 59.1367 171.664 59.1953 170.883 59.1953C169.822 59.1953 168.887 58.9902 168.08 58.5801C167.279 58.1634 166.651 57.5449 166.195 56.7246C165.746 55.9043 165.521 54.8854 165.521 53.668C165.521 52.457 165.727 51.4284 166.137 50.582C166.547 49.7357 167.123 49.0911 167.865 48.6484C168.607 48.2057 169.473 47.9844 170.463 47.9844ZM170.463 49.7129C169.74 49.7129 169.154 49.9473 168.705 50.416C168.262 50.8848 168.002 51.5716 167.924 52.4766H172.846C172.839 51.9362 172.748 51.4577 172.572 51.041C172.403 50.6243 172.143 50.2988 171.791 50.0645C171.446 49.8301 171.003 49.7129 170.463 49.7129ZM179.662 54.6445H177.934L177.465 44.7227H180.131L179.662 54.6445ZM177.348 57.7891C177.348 57.2552 177.484 56.8809 177.758 56.666C178.038 56.4447 178.38 56.334 178.783 56.334C179.18 56.334 179.519 56.4447 179.799 56.666C180.079 56.8809 180.219 57.2552 180.219 57.7891C180.219 58.3099 180.079 58.6875 179.799 58.9219C179.519 59.1497 179.18 59.2637 178.783 59.2637C178.38 59.2637 178.038 59.1497 177.758 58.9219C177.484 58.6875 177.348 58.3099 177.348 57.7891Z" fill="#490A0A"/>
<path d="M133.621 23.5576C133.621 24.5361 133.501 25.4297 133.261 26.2383C133.021 27.0469 132.66 27.7441 132.18 28.3301C131.699 28.916 131.099 29.3701 130.378 29.6924C129.663 30.0146 128.828 30.1758 127.873 30.1758C126.912 30.1758 126.071 30.0146 125.351 29.6924C124.63 29.3701 124.029 28.916 123.549 28.3301C123.074 27.7383 122.717 27.0381 122.477 26.2295C122.236 25.415 122.116 24.5186 122.116 23.54C122.116 22.2393 122.336 21.0938 122.775 20.1035C123.221 19.1133 123.874 18.3398 124.735 17.7832C125.603 17.2266 126.672 16.9482 127.943 16.9482C129.162 16.9482 130.193 17.2148 131.037 17.748C131.887 18.2754 132.528 19.0342 132.962 20.0244C133.401 21.0088 133.621 22.1865 133.621 23.5576ZM123.065 23.5488C123.065 24.6973 123.238 25.7109 123.584 26.5898C123.93 27.4629 124.46 28.1455 125.175 28.6377C125.89 29.1299 126.792 29.376 127.882 29.376C128.983 29.376 129.889 29.1328 130.598 28.6465C131.307 28.1602 131.831 27.4805 132.171 26.6074C132.511 25.7344 132.681 24.7178 132.681 23.5576C132.681 21.7236 132.279 20.2998 131.477 19.2861C130.68 18.2725 129.502 17.7656 127.943 17.7656C126.848 17.7656 125.937 18.0088 125.21 18.4951C124.489 18.9814 123.95 19.6582 123.593 20.5254C123.241 21.3926 123.065 22.4004 123.065 23.5488ZM137.251 30H136.354V16.3242H137.251V30ZM143.764 20.2793C144.812 20.2793 145.598 20.543 146.119 21.0703C146.641 21.5977 146.901 22.4385 146.901 23.5928V30H146.216L146.058 28.3301H146.005C145.8 28.6875 145.551 29.0068 145.258 29.2881C144.965 29.5635 144.604 29.7803 144.177 29.9385C143.755 30.0967 143.239 30.1758 142.63 30.1758C142.015 30.1758 141.487 30.0732 141.048 29.8682C140.614 29.6631 140.277 29.3643 140.037 28.9717C139.803 28.5791 139.686 28.1016 139.686 27.5391C139.686 26.5898 140.078 25.8691 140.863 25.377C141.648 24.8789 142.776 24.5977 144.247 24.5332L146.022 24.4453V23.751C146.022 22.7725 145.829 22.0752 145.442 21.6592C145.056 21.2432 144.484 21.0352 143.729 21.0352C143.236 21.0352 142.762 21.0996 142.305 21.2285C141.854 21.3516 141.394 21.5303 140.925 21.7646L140.644 21.0264C141.101 20.8096 141.59 20.6309 142.111 20.4902C142.639 20.3496 143.189 20.2793 143.764 20.2793ZM146.014 25.1396L144.344 25.21C143.131 25.2686 142.208 25.4854 141.575 25.8604C140.942 26.2354 140.626 26.7979 140.626 27.5479C140.626 28.1514 140.813 28.6143 141.188 28.9365C141.569 29.2588 142.097 29.4199 142.771 29.4199C143.819 29.4199 144.619 29.1211 145.17 28.5234C145.727 27.9258 146.008 27.1113 146.014 26.0801V25.1396ZM146.128 16.21V16.3594C145.987 16.5469 145.814 16.7607 145.609 17.001C145.404 17.2354 145.182 17.4785 144.941 17.7305C144.701 17.9824 144.458 18.2256 144.212 18.46C143.966 18.6943 143.729 18.9053 143.5 19.0928H142.867V18.9434C143.102 18.709 143.359 18.4307 143.641 18.1084C143.922 17.7803 144.188 17.4492 144.44 17.1152C144.698 16.7754 144.909 16.4736 145.073 16.21H146.128ZM151.006 27.9082L151.085 28.1191C150.991 28.5586 150.874 29.0215 150.733 29.5078C150.599 29.9941 150.449 30.4775 150.285 30.958C150.127 31.4443 149.957 31.8984 149.775 32.3203H149.09C149.242 31.7871 149.38 31.2656 149.503 30.7559C149.626 30.252 149.734 29.7627 149.828 29.2881C149.922 28.8076 149.998 28.3477 150.057 27.9082H151.006Z" fill="#490A0A"/>
</svg>
