<svg width="38" height="33" viewBox="0 0 38 33" fill="none" xmlns="http://www.w3.org/2000/svg">
<path fill-rule="evenodd" clip-rule="evenodd" d="M13.8274 0.243042C13.978 0.243042 14.1285 0.243042 14.2791 0.243042C14.1753 0.602616 13.9043 0.791676 13.4661 0.810206C13.3757 0.7967 13.2854 0.783201 13.1951 0.769694C13.3375 0.520118 13.5483 0.344564 13.8274 0.243042Z" fill="#FFFEED"/>
<path fill-rule="evenodd" clip-rule="evenodd" d="M23.5837 0.242995C24.0645 0.205822 24.4259 0.367869 24.6678 0.729136C24.1352 0.868375 23.7738 0.706328 23.5837 0.242995Z" fill="#FFFEED"/>
<path fill-rule="evenodd" clip-rule="evenodd" d="M11.6594 1.53936C11.539 1.59338 11.4486 1.6744 11.3884 1.78243C11.2679 1.80943 11.1474 1.83645 11.027 1.86345C10.7851 1.21744 10.9959 0.731295 11.6594 0.405029C11.7123 0.421988 11.7575 0.448993 11.7949 0.486053C11.8717 0.852384 11.8265 1.20348 11.6594 1.53936Z" fill="#FFFEED"/>
<path fill-rule="evenodd" clip-rule="evenodd" d="M26.6551 1.86361C26.5648 1.72857 26.4444 1.62054 26.2938 1.53952C26.0315 1.21627 25.9713 0.865167 26.1131 0.486212C26.1913 0.398488 26.2816 0.384981 26.3841 0.4457C26.9452 0.76328 27.1409 1.20891 26.9713 1.78259C26.88 1.85037 26.7746 1.87738 26.6551 1.86361Z" fill="#FFFEED"/>
<path fill-rule="evenodd" clip-rule="evenodd" d="M10.214 2.51174C10.0333 2.61976 9.8827 2.75481 9.76228 2.91685C9.70202 2.91685 9.64186 2.91685 9.5816 2.91685C9.12893 2.10809 9.33977 1.4599 10.214 0.97229C10.3313 1.02009 10.4066 1.10112 10.4398 1.21536C10.5362 1.67762 10.4608 2.10975 10.214 2.51174Z" fill="#FFFEED"/>
<path fill-rule="evenodd" clip-rule="evenodd" d="M12.7434 0C12.8337 0 12.9241 0 13.0144 0C13.0932 0.400791 12.9728 0.738383 12.6531 1.01279C12.9653 1.02739 13.2664 1.0814 13.5564 1.17484C13.6953 1.26474 13.7554 1.38628 13.7371 1.53945C13.4077 1.60292 13.0766 1.61643 12.7434 1.57996C12.0245 1.05743 12.0245 0.530777 12.7434 0Z" fill="#FFFEED"/>
<path fill-rule="evenodd" clip-rule="evenodd" d="M24.9388 0C25.5819 0.213473 25.8077 0.61859 25.6163 1.21535C25.2822 1.602 24.8455 1.72353 24.3064 1.57996C24.1836 1.42297 24.2137 1.28792 24.3968 1.17484C24.7227 1.04022 25.054 1.01321 25.3905 1.09382C24.9786 0.827274 24.8281 0.462668 24.9388 0Z" fill="#FFFEED"/>
<path fill-rule="evenodd" clip-rule="evenodd" d="M12.2917 1.70157C11.9862 1.69829 11.6852 1.7253 11.3883 1.78259C11.4486 1.67456 11.5389 1.59354 11.6593 1.53952C11.718 1.5149 11.7783 1.48788 11.84 1.4585C11.948 1.48651 11.948 1.52702 11.84 1.58003C12.01 1.59608 12.1605 1.63659 12.2917 1.70157Z" fill="#FFFEED"/>
<path fill-rule="evenodd" clip-rule="evenodd" d="M12.2917 1.70144C12.5586 1.74039 12.7695 1.86192 12.924 2.06604C12.8291 2.17825 12.7087 2.25927 12.5627 2.30911C12.0697 2.40829 11.618 2.34077 11.2076 2.10656C11.2287 1.98001 11.2889 1.87198 11.3883 1.78246C11.6852 1.72517 11.9862 1.69816 12.2917 1.70144Z" fill="#FFFEED"/>
<path fill-rule="evenodd" clip-rule="evenodd" d="M26.2938 1.70149C26.3854 1.79659 26.5058 1.85061 26.6551 1.86354C26.7799 2.00728 26.7498 2.12882 26.5648 2.22814C26.0167 2.42776 25.5049 2.38725 25.0291 2.10661C25.3465 1.73991 25.7681 1.60486 26.2938 1.70149Z" fill="#FFFEED"/>
<path fill-rule="evenodd" clip-rule="evenodd" d="M26.2938 1.53943C26.4444 1.62045 26.5648 1.72848 26.6552 1.86352C26.5058 1.85059 26.3854 1.79657 26.2938 1.70148C26.2938 1.64746 26.2938 1.59345 26.2938 1.53943Z" fill="#FFFEED"/>
<path fill-rule="evenodd" clip-rule="evenodd" d="M11.3883 1.78247C11.289 1.87199 11.2287 1.98002 11.2076 2.10656C11.0806 2.06823 11.0204 1.98721 11.027 1.86349C11.1474 1.83649 11.2679 1.80948 11.3883 1.78247Z" fill="#FFFEED"/>
<path fill-rule="evenodd" clip-rule="evenodd" d="M29.9072 4.45631C29.6759 4.28294 29.465 4.09389 29.2749 3.88915C29.1124 3.35789 29.0672 2.81773 29.1394 2.26868C29.2257 2.18128 29.301 2.08675 29.3652 1.98509C29.4556 1.93108 29.5459 1.93108 29.6362 1.98509C30.3464 2.54825 30.5723 3.23695 30.3137 4.05119C30.219 4.22276 30.0835 4.3578 29.9072 4.45631Z" fill="#FFFEED"/>
<path fill-rule="evenodd" clip-rule="evenodd" d="M9.76221 3.07882C9.76221 3.0248 9.76221 2.97079 9.76221 2.91677C9.98841 2.82895 10.1992 2.72092 10.3946 2.59268C10.9706 2.4157 11.4675 2.52373 11.8851 2.91677C11.9408 2.99367 11.9258 3.06119 11.8399 3.11933C11.1181 3.50521 10.4255 3.4917 9.76221 3.07882Z" fill="#FFFEED"/>
<path fill-rule="evenodd" clip-rule="evenodd" d="M27.6488 0.97229C28.7384 1.56656 28.889 2.30928 28.1005 3.20043C27.4711 3.57032 26.8387 3.57032 26.2035 3.20043C26.0673 3.13259 26.0222 3.03807 26.068 2.91685C26.4297 2.58368 26.8663 2.46215 27.3778 2.55225C27.5647 2.70412 27.7755 2.78514 28.0102 2.79532C27.4547 2.25414 27.3343 1.64646 27.6488 0.97229Z" fill="#FFFEED"/>
<path fill-rule="evenodd" clip-rule="evenodd" d="M10.2139 2.51172C10.2741 2.53872 10.3343 2.56574 10.3946 2.59274C10.1992 2.72099 9.98841 2.82901 9.76221 2.91684C9.88263 2.75479 10.0332 2.61975 10.2139 2.51172Z" fill="#FFFEED"/>
<path fill-rule="evenodd" clip-rule="evenodd" d="M9.5816 2.91687C9.64185 2.91687 9.70201 2.91687 9.76227 2.91687C9.76227 2.97089 9.76227 3.0249 9.76227 3.07892C9.39731 3.32234 9.1263 3.59241 8.94924 3.88915C8.81184 4.05352 8.63117 4.12103 8.40723 4.09171C8.46712 3.96868 8.55746 3.87415 8.67823 3.80813C9.04554 3.55997 9.34663 3.26289 9.5816 2.91687Z" fill="#FFFEED"/>
<path fill-rule="evenodd" clip-rule="evenodd" d="M6.87148 5.91477C6.7329 6.16538 6.55223 6.38147 6.32946 6.56296C5.79869 6.34177 5.51263 5.96363 5.47127 5.42863C5.39159 4.60293 5.67766 3.90072 6.32946 3.32202C6.89144 3.65819 7.13237 4.13082 7.05215 4.73993C7.0536 5.14046 6.99334 5.53207 6.87148 5.91477Z" fill="#FFFEED"/>
<path fill-rule="evenodd" clip-rule="evenodd" d="M31.4429 6.64398C31.3985 6.45609 31.3081 6.29404 31.1719 6.15784C31.1452 6.00365 31.0849 5.86861 30.9912 5.75273C30.6755 4.97763 30.7659 4.24842 31.2623 3.56509C31.3827 3.48407 31.5032 3.40304 31.6236 3.32202C32.5191 4.247 32.6546 5.2463 32.0301 6.31989C31.852 6.46022 31.6562 6.56823 31.4429 6.64398Z" fill="#FFFEED"/>
<path fill-rule="evenodd" clip-rule="evenodd" d="M8.67832 3.80809C8.55754 3.87411 8.46721 3.96864 8.40731 4.09167C8.63126 4.12099 8.81193 4.05348 8.94933 3.88911C9.67464 3.59783 10.307 3.70586 10.8464 4.21321C10.4285 4.70277 9.87148 4.91884 9.17517 4.86139C8.97941 4.84789 8.78374 4.83439 8.58799 4.82088C8.43288 4.69458 8.25221 4.62707 8.04597 4.61832C7.2343 3.60859 7.35472 2.69032 8.40731 1.86353C8.60768 1.97892 8.74318 2.14097 8.81383 2.34967C8.87995 2.84522 8.83478 3.33136 8.67832 3.80809Z" fill="#FFFEED"/>
<path fill-rule="evenodd" clip-rule="evenodd" d="M29.0942 3.97014C29.3691 4.1357 29.5799 4.35175 29.7266 4.61833C28.8171 5.09344 27.9589 5.01241 27.152 4.37526C27.1827 4.02344 27.4085 3.82088 27.8295 3.76758C28.2824 3.68996 28.7039 3.75748 29.0942 3.97014Z" fill="#FFFEED"/>
<path fill-rule="evenodd" clip-rule="evenodd" d="M29.2749 3.88915C29.4651 4.0939 29.6759 4.28295 29.9073 4.45631C30.0599 4.78136 29.9997 4.83537 29.7266 4.61836C29.5799 4.35179 29.3691 4.13573 29.0942 3.97017C29.086 3.79211 29.1462 3.76509 29.2749 3.88915Z" fill="#FFFEED"/>
<path fill-rule="evenodd" clip-rule="evenodd" d="M8.04591 4.61841C7.99352 4.80061 7.8731 4.93565 7.68457 5.02353C7.73697 4.84132 7.85738 4.70629 8.04591 4.61841Z" fill="#FFFEED"/>
<path fill-rule="evenodd" clip-rule="evenodd" d="M7.68458 5.02344C7.66308 5.17774 7.57275 5.28577 7.41357 5.34753C7.43507 5.19323 7.52541 5.0852 7.68458 5.02344Z" fill="#FFFEED"/>
<path fill-rule="evenodd" clip-rule="evenodd" d="M6.60059 6.72496C6.71242 6.46261 6.86292 6.21954 7.05227 5.99575C7.80106 5.38977 8.64426 5.26823 9.58168 5.63115C9.73624 5.72296 9.78141 5.8445 9.71718 5.99575C8.84761 6.86408 7.80874 7.10715 6.60059 6.72496Z" fill="#FFFEED"/>
<path fill-rule="evenodd" clip-rule="evenodd" d="M30.7203 5.8337C30.7418 5.98797 30.8322 6.09605 30.9913 6.15779C31.155 6.31668 31.2454 6.50571 31.2624 6.72496C29.9869 7.15876 28.9329 6.87517 28.1006 5.87421C28.6141 5.45649 29.2164 5.32144 29.9073 5.46909C30.204 5.55276 30.475 5.67429 30.7203 5.8337Z" fill="#FFFEED"/>
<path fill-rule="evenodd" clip-rule="evenodd" d="M7.41359 5.34753C7.33771 5.53814 7.2172 5.70019 7.05225 5.83367C7.08341 5.61508 7.20383 5.45303 7.41359 5.34753Z" fill="#FFFEED"/>
<path fill-rule="evenodd" clip-rule="evenodd" d="M5.3358 8.58841C5.21167 8.75184 5.22672 8.91388 5.38096 9.07455C5.45246 8.97368 5.49762 8.86567 5.51647 8.75046C5.90718 8.25176 6.41911 7.88715 7.05218 7.65664C7.63973 7.58129 8.21192 7.63525 8.76857 7.81869C8.81572 7.86414 8.84581 7.91819 8.85891 7.98074C8.11463 9.38123 6.91017 9.93486 5.24546 9.64172C5.26913 9.52196 5.23902 9.41396 5.15512 9.31762C5.08443 9.46249 4.96398 9.54352 4.79378 9.56069C4.0635 9.32402 3.59676 8.86486 3.39357 8.1833C3.20508 7.22001 3.40081 6.32875 3.98075 5.50952C4.72095 5.80941 5.15757 6.32251 5.29063 7.04897C5.33575 7.56144 5.35081 8.07456 5.3358 8.58841Z" fill="#FFFEED"/>
<path fill-rule="evenodd" clip-rule="evenodd" d="M33.069 9.56069C32.8997 9.43284 32.7792 9.45982 32.7077 9.64172C31.4153 9.962 30.3464 9.63791 29.5008 8.66944C29.3014 8.46056 29.1358 8.23102 29.0039 7.98074C29.4808 7.64149 30.0228 7.53349 30.63 7.65664C31.3362 7.81845 31.9083 8.15607 32.3463 8.66944C32.3329 8.75467 32.3479 8.8357 32.3915 8.91251C32.4518 9.02051 32.5119 9.02051 32.5722 8.91251C32.6023 8.96655 32.6324 9.02051 32.6625 9.07455C32.68 8.8425 32.6348 8.62649 32.527 8.42637C32.4354 7.5804 32.6312 6.79715 33.1142 6.07669C33.3307 5.84172 33.5867 5.65267 33.8821 5.50952C34.579 6.36399 34.7748 7.3093 34.4692 8.34534C34.2477 8.98988 33.781 9.395 33.069 9.56069Z" fill="#FFFEED"/>
<path fill-rule="evenodd" clip-rule="evenodd" d="M30.9912 5.75274C31.0849 5.86862 31.1452 6.00367 31.1719 6.15785C31.091 6.07634 31.0308 6.07634 30.9912 6.15785C30.8321 6.09611 30.7417 5.98803 30.7202 5.83376C30.7878 5.65268 30.863 5.67969 30.9461 5.91478C30.988 5.86662 31.0031 5.8126 30.9912 5.75274Z" fill="#FFFEED" fill-opacity="0.403922"/>
<path fill-rule="evenodd" clip-rule="evenodd" d="M31.1719 6.15781C31.3081 6.29401 31.3984 6.45606 31.4429 6.64395C31.412 6.71185 31.3518 6.73891 31.2622 6.72498C31.2452 6.50573 31.1549 6.3167 30.9912 6.15781C31.0308 6.0763 31.0909 6.0763 31.1719 6.15781Z" fill="#FFFEED"/>
<path fill-rule="evenodd" clip-rule="evenodd" d="M32.0753 7.85924C31.8344 7.56237 31.6688 7.23828 31.5785 6.88696C31.8184 7.18221 31.984 7.50631 32.0753 7.85924Z" fill="#FFFEED"/>
<path fill-rule="evenodd" clip-rule="evenodd" d="M7.05218 5.83374C7.05218 5.88778 7.05218 5.94174 7.05218 5.99579C6.86284 6.21957 6.71234 6.46264 6.6005 6.725C6.30676 7.11667 6.03576 7.52178 5.78748 7.94035C5.93547 7.4991 6.14626 7.08045 6.41983 6.68449C6.3696 6.65345 6.33949 6.61294 6.32949 6.56295C6.55226 6.38146 6.73293 6.16537 6.87151 5.91476C6.93176 5.88778 6.99193 5.86075 7.05218 5.83374Z" fill="#FFFEED"/>
<path fill-rule="evenodd" clip-rule="evenodd" d="M32.0753 7.85925C32.2418 8.0499 32.3623 8.26599 32.4367 8.50744C32.519 8.60775 32.5341 8.71583 32.4818 8.83153C32.4567 8.75732 32.4115 8.70336 32.3463 8.66949C32.2553 8.39855 32.1649 8.12849 32.0753 7.85925Z" fill="#FFFEED"/>
<path fill-rule="evenodd" clip-rule="evenodd" d="M5.78749 7.94031C5.76876 8.16239 5.67843 8.35142 5.51648 8.50747C5.53521 8.28539 5.62554 8.09636 5.78749 7.94031Z" fill="#FFFEED"/>
<path fill-rule="evenodd" clip-rule="evenodd" d="M5.5165 8.50745C5.5165 8.58847 5.5165 8.66949 5.5165 8.75052C5.49766 8.86573 5.45249 8.97374 5.381 9.07461C5.22676 8.91394 5.21171 8.75189 5.33583 8.58847C5.32992 8.62396 5.34497 8.65102 5.381 8.66949C5.40615 8.59528 5.45132 8.54131 5.5165 8.50745Z" fill="#FFFEED"/>
<path fill-rule="evenodd" clip-rule="evenodd" d="M32.527 8.42651C32.6348 8.62664 32.6799 8.84265 32.6625 9.0747C32.6324 9.02066 32.6022 8.9667 32.5722 8.91265C32.5119 9.02066 32.4517 9.02066 32.3915 8.91265C32.3479 8.83584 32.3329 8.75482 32.3463 8.66958C32.4115 8.70345 32.4567 8.75741 32.4818 8.83163C32.5341 8.71593 32.519 8.60784 32.4367 8.50754C32.4969 8.50754 32.527 8.48056 32.527 8.42651Z" fill="#FFFEED"/>
<path fill-rule="evenodd" clip-rule="evenodd" d="M33.9724 13.6119C33.852 13.6119 33.7315 13.6119 33.6111 13.6119C33.6111 13.2068 33.6111 12.8017 33.6111 12.3966C33.6448 11.1617 34.1567 10.1219 35.1468 9.27717C35.4529 9.08588 35.784 8.93736 36.1405 8.83154C36.2734 8.90292 36.3486 9.01093 36.3663 9.15564C36.7198 10.4604 36.509 11.6757 35.734 12.8017C35.263 13.2798 34.6758 13.5499 33.9724 13.6119Z" fill="#FFFEED"/>
<path fill-rule="evenodd" clip-rule="evenodd" d="M4.52271 13.6119C4.51319 13.284 4.5433 12.9599 4.61305 12.6397C5.13483 10.8661 6.39954 10.1638 8.40717 10.533C8.08087 12.0279 7.11735 13.0407 5.51641 13.5714C5.18654 13.6119 4.8553 13.6253 4.52271 13.6119Z" fill="#FFFEED"/>
<path fill-rule="evenodd" clip-rule="evenodd" d="M33.1593 12.2346C33.1894 12.3426 33.2196 12.4507 33.2497 12.5587C33.3285 12.9045 33.3586 13.2557 33.34 13.612C33.1593 13.612 32.9787 13.612 32.798 13.612C31.0166 13.2432 29.9025 12.2574 29.4556 10.6547C31.2146 10.174 32.4492 10.7007 33.1593 12.2346Z" fill="#FFFEED"/>
<path fill-rule="evenodd" clip-rule="evenodd" d="M5.2454 9.64172C4.95367 10.2279 4.75795 10.8491 4.65822 11.5053C4.62045 11.8033 4.57528 12.1004 4.52271 12.3965C4.52447 12.4959 4.55459 12.5769 4.61305 12.6396C4.5433 12.9598 4.51319 13.2839 4.52271 13.6119C4.52271 13.7739 4.52271 13.936 4.52271 14.098C4.43554 13.5991 4.37532 13.0859 4.34204 12.5586C4.48106 11.6384 4.69184 10.7201 4.97439 9.80377C4.93443 9.70338 4.8742 9.62236 4.79372 9.5607C4.96392 9.54352 5.08437 9.4625 5.15507 9.31763C5.23896 9.41396 5.26907 9.52197 5.2454 9.64172Z" fill="#FFFEED"/>
<path fill-rule="evenodd" clip-rule="evenodd" d="M33.0689 9.56074C33.0312 9.61924 32.971 9.65975 32.8883 9.68228C33.1735 10.586 33.4144 11.4908 33.611 12.3966C33.611 12.8017 33.611 13.2068 33.611 13.6119C33.522 13.9469 33.4919 14.298 33.5206 14.6652C33.4751 15.5177 33.3245 16.355 33.0689 17.1769C33.0728 17.2512 33.1029 17.3052 33.1593 17.339C32.9358 17.7513 32.7852 18.1835 32.7076 18.6354C32.6285 18.6248 32.5682 18.6517 32.5269 18.7164C32.205 19.4826 31.8135 20.2118 31.3525 20.904C31.2923 20.877 31.2321 20.85 31.1719 20.823C31.6221 20.1368 32.0135 19.4211 32.3462 18.6759C32.3243 18.6028 32.2941 18.5353 32.2559 18.4733C32.3688 18.4671 32.4441 18.413 32.4817 18.3113C32.5894 17.9772 32.6949 17.6531 32.7979 17.339C33.1678 16.4057 33.3484 15.4334 33.3399 14.4222C33.4604 14.1521 33.4604 13.882 33.3399 13.6119C33.3586 13.2556 33.3285 12.9044 33.2496 12.5586C33.37 12.3696 33.37 12.1805 33.2496 11.9914C33.1743 11.1788 32.9936 10.3955 32.7076 9.64177C32.7791 9.45987 32.8996 9.43289 33.0689 9.56074Z" fill="#FFFEED"/>
<path fill-rule="evenodd" clip-rule="evenodd" d="M33.2496 11.9915C33.3701 12.1805 33.3701 12.3696 33.2496 12.5586C33.2196 12.4506 33.1894 12.3425 33.1593 12.2345C33.241 12.1771 33.271 12.0961 33.2496 11.9915Z" fill="#FFFEED"/>
<path fill-rule="evenodd" clip-rule="evenodd" d="M4.34215 12.5587C4.37543 13.086 4.43565 13.5992 4.52283 14.0981C4.59736 15.1062 4.74792 16.1056 4.97451 17.096C5.00995 17.232 5.05511 17.3671 5.11001 17.5011C5.15512 17.0969 5.17017 16.6918 5.15518 16.2858C5.57866 14.5029 6.81321 13.6657 8.85896 13.774C8.8586 15.4896 8.13591 16.9075 6.69089 18.0278C6.31078 18.2268 5.91932 18.4023 5.51652 18.5544C6.14282 20.003 6.98593 21.3263 8.04594 22.5246C7.46155 21.4325 7.35613 20.2981 7.72976 19.1216C8.29355 18.0171 9.22699 17.2879 10.5302 16.934C10.8815 17.3924 11.0923 17.9055 11.1625 18.4734C11.425 20.2222 11.0035 21.8157 9.89783 23.2538C9.69864 23.4596 9.47279 23.6352 9.22031 23.7804C10.6345 25.1839 12.2907 26.2911 14.1888 27.1024C14.2791 27.1564 14.3695 27.1564 14.4598 27.1024C12.1255 25.5201 11.5684 23.535 12.7886 21.1472C13.1778 20.582 13.6746 20.1364 14.2791 19.8103C15.4199 20.7075 16.1577 21.8283 16.4924 23.1728C16.8403 24.5054 16.9909 25.8558 16.944 27.2239C16.8749 27.4424 16.7695 27.6449 16.6279 27.8316C17.5616 28.2371 18.3294 28.8177 18.9314 29.5736C19.5482 28.8176 20.316 28.2234 21.235 27.7911C20.9694 27.4638 20.849 27.0992 20.8737 26.6973C20.9457 25.4512 21.1414 24.2223 21.4609 23.0107C21.8112 21.7468 22.5188 20.68 23.5837 19.8103C23.7109 19.7848 23.8314 19.8118 23.9451 19.8913C25.9057 21.5431 26.2821 23.4472 25.0743 25.6035C24.6716 26.1538 24.1747 26.6264 23.5837 27.0214C25.4683 26.2796 27.1395 25.2398 28.5974 23.902C27.1264 22.4553 26.494 20.7268 26.7003 18.7165C26.7873 18.1045 26.983 17.5238 27.2875 16.9745C29.0004 17.3768 30.0393 18.3626 30.4041 19.9318C30.4644 20.2829 30.4644 20.6341 30.4041 20.9851C30.2323 21.579 30.0216 22.1461 29.7718 22.6866C30.2842 22.0911 30.7509 21.4699 31.172 20.8231C31.2322 20.8501 31.2924 20.8771 31.3527 20.9041C30.9853 21.5353 30.5487 22.1295 30.0428 22.6866C29.9825 22.7407 29.9825 22.7946 30.0428 22.8487C31.176 21.8204 32.4858 21.0237 33.9724 20.4585C35.1447 20.0024 36.3191 19.9889 37.4955 20.418C36.8361 22.6985 35.2401 24.2244 32.7077 24.9958C31.1999 25.328 29.9202 24.9904 28.8684 23.983C27.322 25.5057 25.5001 26.6805 23.4031 27.5075C24.8304 27.213 26.2758 26.9699 27.7392 26.7783C29.487 26.541 31.1433 26.7841 32.7077 27.5075C32.9905 27.6799 33.2464 27.8825 33.4756 28.1152C33.5358 28.2232 33.5358 28.3313 33.4756 28.4393C30.924 30.9217 27.8074 31.8264 24.1258 31.1536C23.8659 31.0761 23.6249 30.9681 23.4031 30.8295C22.661 30.0521 22.0437 29.2013 21.5512 28.2772C21.4258 28.1918 21.2903 28.1784 21.1447 28.2367C20.3694 28.6618 19.707 29.202 19.1573 29.8572C19.8638 30.7058 20.3606 31.6375 20.6478 32.6525C20.541 32.7523 20.4356 32.7523 20.3316 32.6525C20.0078 31.7475 19.541 30.9103 18.9314 30.1408C18.2741 30.9149 17.8375 31.7791 17.6216 32.7335C17.471 32.7335 17.3205 32.7335 17.1699 32.7335C17.4873 31.678 17.9993 30.7058 18.7056 29.8167C18.1921 29.0996 17.4996 28.5729 16.6279 28.2367C16.5253 28.176 16.435 28.1895 16.3569 28.2772C15.8632 29.2574 15.2007 30.1351 14.3695 30.9105C12.2113 31.6519 10.0734 31.5979 7.9556 30.7485C6.57364 30.1767 5.3842 29.38 4.38732 28.3583C4.59517 27.9817 4.91134 27.6711 5.33585 27.4265C6.88801 26.8032 8.51406 26.5871 10.214 26.7783C11.4329 26.9303 12.6374 27.1329 13.8274 27.386C14.0455 27.5021 14.2864 27.5426 14.5501 27.5075C14.3567 27.4611 14.1761 27.3936 14.0081 27.305C12.1242 26.4673 10.4529 25.36 8.99446 23.983C7.93356 24.9571 6.65377 25.2947 5.15518 24.9958C2.76555 24.2028 1.16961 22.7173 0.367365 20.5395C0.380446 20.477 0.410555 20.4229 0.457701 20.3775C1.71165 19.9872 2.94624 20.0411 4.16148 20.5395C5.44542 21.0845 6.6198 21.7732 7.68459 22.6056C6.76343 21.3316 5.93538 20.0082 5.20035 18.6355C3.66044 19.1205 2.36562 18.7964 1.31589 17.6632C0.379299 16.4793 -0.0573322 15.1559 0.00602056 13.693C0.501451 13.682 0.98325 13.7495 1.4514 13.8956C2.90286 14.6439 3.95678 15.7108 4.61316 17.096C4.68725 17.2289 4.76253 17.364 4.839 17.5011C4.86387 17.2939 4.81871 17.1048 4.7035 16.934C4.4419 15.8399 4.32145 14.7326 4.34215 13.612C2.92601 13.5993 2.00759 12.9781 1.5869 11.7485C1.27808 10.7991 1.29314 9.85381 1.63207 8.91264C1.80965 8.84199 1.99033 8.85552 2.17409 8.95315C3.04718 9.36945 3.63436 10.0042 3.93564 10.8572C4.17898 11.4031 4.31448 11.9703 4.34215 12.5587Z" fill="#FFFEED"/>
<path fill-rule="evenodd" clip-rule="evenodd" d="M32.798 13.6119C32.9786 13.6119 33.1593 13.6119 33.34 13.6119C33.4604 13.882 33.4604 14.1521 33.34 14.4222C33.34 14.1791 33.34 13.936 33.34 13.693C33.1381 13.7169 32.9574 13.6898 32.798 13.6119Z" fill="#FFFEED"/>
<path fill-rule="evenodd" clip-rule="evenodd" d="M32.798 17.339C32.695 17.6531 32.5895 17.9772 32.4819 18.3112C32.4442 18.413 32.3689 18.467 32.256 18.4733C31.2621 18.1635 30.4943 17.5963 29.9525 16.7718C29.3132 15.8561 29.0272 14.8568 29.0943 13.7739C31.6938 13.8101 32.9283 14.9984 32.798 17.339Z" fill="#FFFEED"/>
<path fill-rule="evenodd" clip-rule="evenodd" d="M32.7076 18.6353C32.7852 18.1835 32.9358 17.7513 33.1593 17.3389C33.8363 15.8811 34.9203 14.7332 36.4114 13.8954C36.8748 13.7269 37.3566 13.6594 37.8568 13.6929C38.0323 15.5232 37.3698 17.0491 35.8694 18.2707C34.8897 18.9293 33.8358 19.0508 32.7076 18.6353Z" fill="#FFFEED"/>
<path fill-rule="evenodd" clip-rule="evenodd" d="M33.611 13.6119C33.7314 13.6119 33.8519 13.6119 33.9723 13.6119C33.8759 13.6876 33.7554 13.7147 33.611 13.693C33.6396 14.0334 33.6095 14.3575 33.5207 14.6652C33.4919 14.298 33.522 13.9469 33.611 13.6119Z" fill="#FFFEED"/>
<path fill-rule="evenodd" clip-rule="evenodd" d="M5.15516 16.2856C5.17015 16.6917 5.1551 17.0968 5.10999 17.501C5.05509 17.367 5.00993 17.2319 4.97449 17.0959C5.03471 16.8258 5.09493 16.5557 5.15516 16.2856Z" fill="#FFFEED"/>
<path fill-rule="evenodd" clip-rule="evenodd" d="M4.7035 16.9338C4.8187 17.1046 4.86387 17.2937 4.839 17.501C4.76252 17.3638 4.68724 17.2288 4.61316 17.0959C4.68888 17.0682 4.719 17.0142 4.7035 16.9338Z" fill="#FFFEED"/>
<path fill-rule="evenodd" clip-rule="evenodd" d="M8.04585 22.5245C8.18903 22.5652 8.2342 22.6462 8.18135 22.7676C8.08749 22.7073 8.04232 22.6263 8.04585 22.5245Z" fill="#FFFEED"/>
<path fill-rule="evenodd" clip-rule="evenodd" d="M7.68457 22.6055C7.78638 22.6559 7.87672 22.7234 7.95558 22.808C7.7759 22.8501 7.68556 22.7826 7.68457 22.6055Z" fill="#FFFEED"/>
<path fill-rule="evenodd" clip-rule="evenodd" d="M14.0081 27.3049C14.176 27.3936 14.3567 27.4611 14.5501 27.5075C14.2864 27.5426 14.0455 27.5021 13.8274 27.386C13.917 27.3999 13.9772 27.3728 14.0081 27.3049Z" fill="#FFFEED"/>
</svg>
