<svg width="41" height="31" viewBox="0 0 41 31" fill="none" xmlns="http://www.w3.org/2000/svg">
<path d="M15.3572 0.377074C22.197 0.377197 28.9908 0.374493 35.7847 0.379015C38.0832 0.380545 39.9411 1.75979 40.3796 3.77458C40.417 3.94662 40.4241 4.12608 40.4241 4.30209C40.4262 11.847 40.4263 19.3918 40.4257 26.9367C40.4255 28.5802 38.9257 30.274 37.1391 30.642C36.9638 30.6781 36.7759 30.674 36.5939 30.674C25.9747 30.6754 15.3554 30.6636 4.73621 30.6885C3.22936 30.692 2.17909 30.0739 1.33315 29.0782C0.747966 28.3894 0.476283 27.5843 0.47638 26.7125C0.477213 19.3041 0.472149 11.8957 0.479593 4.48723C0.481902 2.18976 2.53176 0.383287 5.12051 0.378841C8.51742 0.373009 11.9143 0.377196 15.3572 0.377074ZM14.8521 2.52112C11.6228 2.52113 8.39355 2.5202 5.16431 2.52332C4.9528 2.52353 4.7328 2.5271 4.53126 2.57634C3.50215 2.82779 2.92585 3.52629 2.92516 4.55309C2.92023 11.8811 2.92149 19.2092 2.92561 26.5372C2.92574 26.7664 2.94219 27.0048 3.01263 27.2231C3.30678 28.1345 4.14189 28.6315 5.36192 28.6321C10.5655 28.6344 15.769 28.6335 20.9726 28.6335C25.8547 28.6335 30.7369 28.6354 35.619 28.6314C37.0865 28.6302 38.0387 27.8093 38.0393 26.5448C38.0423 19.2167 38.0405 11.8887 38.0409 4.56062C38.041 3.18274 36.823 2.50271 35.7428 2.50702C28.8099 2.53469 21.8769 2.52113 14.8521 2.52112Z" fill="#FFFEED"/>
<path d="M7.58777 13.6617C7.8529 13.6394 8.08084 13.6074 8.30881 13.6073C16.4038 13.6047 24.4987 13.6134 32.5936 13.5957C33.7342 13.5932 34.697 14.1652 34.6729 15.4596C34.6173 18.4469 34.6561 21.4356 34.6548 24.4237C34.6544 25.5379 33.9932 26.1341 32.7355 26.1345C24.5487 26.1371 16.362 26.1372 8.17522 26.1342C6.95829 26.1337 6.2737 25.5177 6.27281 24.438C6.27031 21.3954 6.27077 18.3527 6.27294 15.31C6.27354 14.4566 6.64953 13.9793 7.58777 13.6617Z" fill="#FEFDEC"/>
<path d="M27.0205 7.36207C23.4858 7.36203 19.997 7.35975 16.5082 7.36421C15.936 7.36494 15.5007 7.1665 15.2291 6.71975C14.9846 6.31762 15.0052 5.90549 15.2868 5.52437C15.5888 5.11569 16.0337 4.96783 16.5802 4.96851C21.9358 4.9752 27.2914 4.97253 32.647 4.97252C32.8459 4.97252 33.0449 4.97099 33.2438 4.97293C34.0646 4.9809 34.6582 5.48905 34.6538 6.17878C34.6496 6.85039 34.0655 7.35765 33.2636 7.35997C31.1979 7.36594 29.1321 7.36203 27.0205 7.36207Z" fill="#FFFEED"/>
<path d="M8.48241 4.99915C9.58128 5.0103 10.6398 4.97565 11.6895 5.04637C12.6139 5.10865 13.2072 5.73484 13.2222 6.55714C13.2415 7.60735 13.2424 8.65829 13.2218 9.70846C13.2045 10.5931 12.4633 11.2504 11.4627 11.2672C10.3155 11.2864 9.16726 11.2887 8.02025 11.2667C6.97398 11.2467 6.27617 10.5743 6.27276 9.62954C6.26951 8.72914 6.27173 7.82871 6.27181 6.92829C6.27194 5.56079 6.9002 5.00142 8.48241 4.99915Z" fill="#FFFEED"/>
<path d="M22.704 8.84629C23.6066 8.84636 24.4633 8.84042 25.3199 8.84813C26.2206 8.85624 26.8411 9.36206 26.8361 10.0684C26.8311 10.7763 26.2072 11.2709 25.3024 11.2716C22.396 11.274 19.4895 11.2743 16.583 11.2714C15.7067 11.2705 15.0893 10.7808 15.0779 10.0934C15.0659 9.36735 15.6561 8.85377 16.5546 8.84946C18.589 8.83968 20.6236 8.84632 22.704 8.84629Z" fill="#FFFEED"/>
</svg>
